fd_11_states
version=1
nRows=15
nColumns=17
inDegrees=yes

# SIMM Motion File Header:
name fd_11_states
datacolumns 17
datarows 15
otherdata 1
range 0.818881 0.828531
endheader
time	/jointset/r_shoulder/r_shoulder_elev/value	/jointset/r_shoulder/r_shoulder_elev/speed	/jointset/r_elbow/r_elbow_flex/value	/jointset/r_elbow/r_elbow_flex/speed	/forceset/TRIlong/activation	/forceset/TRIlong/fiber_length	/forceset/TRIlat/activation	/forceset/TRIlat/fiber_length	/forceset/TRImed/activation	/forceset/TRImed/fiber_length	/forceset/BIClong/activation	/forceset/BIClong/fiber_length	/forceset/BICshort/activation	/forceset/BICshort/fiber_length	/forceset/BRA/activation	/forceset/BRA/fiber_length
      0.818881	     -0.006415	     -0.154630	     79.401234	   -254.357000	      0.020001	      0.166271	      0.249814	      0.099766	      0.245525	      0.094811	      0.100026	      0.105899	      0.020052	      0.105991	      0.020678	      0.072544
      0.819727	     -0.006543	     -0.146989	     79.185905	   -255.060043	      0.020001	      0.166201	      0.247121	      0.099701	      0.242872	      0.094746	      0.098996	      0.106090	      0.020051	      0.106166	      0.020670	      0.072620
      0.820330	     -0.006631	     -0.143755	     79.031939	   -255.553346	      0.020001	      0.166151	      0.245234	      0.099655	      0.241006	      0.094700	      0.098267	      0.106227	      0.020051	      0.106291	      0.020668	      0.072683
      0.820933	     -0.006716	     -0.139464	     78.877675	   -256.050645	      0.020001	      0.166100	      0.243354	      0.099609	      0.239090	      0.094653	      0.097520	      0.106364	      0.020051	      0.106416	      0.020753	      0.072734
      0.821536	     -0.006800	     -0.137830	     78.723113	   -256.538918	      0.020001	      0.166050	      0.241495	      0.099563	      0.237170	      0.094607	      0.096769	      0.106502	      0.020050	      0.106541	      0.020887	      0.072790
      0.822420	     -0.006921	     -0.136879	     78.496110	   -257.250099	      0.020001	      0.165976	      0.238825	      0.099495	      0.234414	      0.094538	      0.095684	      0.106704	      0.020050	      0.106725	      0.021058	      0.072868
      0.823073	     -0.007011	     -0.139172	     78.327750	   -257.766283	      0.020001	      0.165921	      0.236890	      0.099444	      0.232416	      0.094488	      0.094892	      0.106853	      0.020049	      0.106861	      0.021167	      0.072934
      0.823727	     -0.007103	     -0.140768	     78.159052	   -258.285381	      0.020001	      0.165866	      0.234987	      0.099394	      0.230453	      0.094437	      0.094111	      0.107003	      0.020049	      0.106997	      0.021263	      0.072989
      0.824381	     -0.007196	     -0.145137	     77.990018	   -258.795050	      0.020001	      0.165811	      0.233118	      0.099343	      0.228523	      0.094386	      0.093339	      0.107153	      0.020048	      0.107133	      0.021348	      0.073052
      0.825183	     -0.007315	     -0.150097	     77.782317	   -259.421762	      0.020001	      0.165744	      0.230869	      0.099280	      0.226202	      0.094323	      0.092405	      0.107336	      0.020048	      0.107301	      0.021439	      0.073122
      0.825817	     -0.007412	     -0.156683	     77.617724	   -259.908188	      0.020001	      0.165690	      0.229123	      0.099231	      0.224400	      0.094273	      0.091677	      0.107482	      0.020047	      0.107433	      0.021502	      0.073188
      0.826450	     -0.007513	     -0.161852	     77.452822	   -260.399765	      0.020001	      0.165636	      0.227407	      0.099181	      0.222628	      0.094223	      0.090957	      0.107627	      0.020047	      0.107566	      0.021558	      0.073241
      0.827084	     -0.007618	     -0.169161	     77.287610	   -260.883902	      0.020001	      0.165583	      0.225717	      0.099131	      0.220885	      0.094173	      0.090246	      0.107773	      0.020047	      0.107699	      0.021608	      0.073302
      0.827907	     -0.007761	     -0.177756	     77.072623	   -261.515750	      0.020001	      0.165513	      0.223565	      0.099066	      0.218663	      0.094108	      0.089334	      0.107962	      0.020046	      0.107871	      0.021664	      0.073376
      0.828531	     -0.007874	     -0.186236	     76.909243	   -261.987983	      0.020001	      0.165460	      0.221962	      0.099017	      0.217009	      0.094059	      0.088652	      0.108105	      0.020046	      0.108002	      0.021701	      0.073440
